
<svg 
className=" text-primary"
version="1.1" id="Layer_1" xmlns="http://www.w3.org/2000/svg" xmlns:xlink="http://www.w3.org/1999/xlink" x="0px" y="0px"
	 viewBox="0 0 576 576" style="enable-background:new 0 0 576 576;" xml:space="preserve">
<style type="text/css">
	.st0{fill-rule:evenodd;clip-rule:evenodd;}
</style>
<g>
	<path class="st0" d="M367.2,329.1c-10.8-10.1-20.9-21.1-32.5-30.2c-12.4-9.8-16.3-21.2-15.4-36.8c1.4-23.8,0.4-47.7-1.4-72.2
		c-18.1,43.1-36.3,86.2-54.5,129.5c19,0,37.2,0,56.1,0c0-7.3,0-14.2,0-24.1c20.3,19.1,38.7,36.4,57.9,54.5
		c-19.8,15.2-38.7,29.8-59.1,45.5c0-8.7,0-16.1,0-24.2c-25,0-48.8-0.1-72.6,0.2c-1.9,0-4.5,2.4-5.4,4.4
		c-13.2,29.2-26.2,58.6-39.2,87.9c-2.8,6.3-5.2,12.8-8.2,19.1c-0.7,1.5-2.7,3.4-4.1,3.4c-20.5,0.2-41,0.1-63.8,0.1
		c52-106.4,103.1-211.2,154.8-316.9c-31.2,2.9-57.9,13.5-80.6,33c-24.7,21.2-41,47.7-47.9,80c-6.8,31.9-3.1,62.4,11.3,91.3
		c3.3,6.7,4.1,11.6-0.1,18c-4.1,6.3-6.8,13.4-11.1,22.1c-5.5-9.2-11-16.9-15-25.2c-14.4-29.8-19.5-61.6-16.5-94.3
		c3-32.9,15-62.7,35.4-88.9c23.5-30.2,54-50,90.5-59.9c11.9-3.2,24.7-3.5,37.1-4.2c5.9-0.3,9.4-1.4,12.1-7.4
		c6.7-14.8,14.4-29.2,21.8-44c17.5,0,35.1,0,53.5,0c0,23.7,0,47.2,0,70.8c22.7,13,41.2,29.8,56.1,50.8c15.6,21.8,26,45.6,29.3,72.3
		c3.6,28.9,3.2,57.5-6.9,85.4c-20.7,56.9-60.3,94.2-118.2,109.3c-38.7,10.1-77.8,6.8-114.8-11.1c-6.8-3.3-6.8-6.5-3.8-12
		c3.2-5.9,6.1-11.9,9.3-18.1c36.8,18.8,75,23.5,114.1,9.2c38.3-14,66.5-40.3,82.4-77.6c31.8-74.3-5.7-147-48.6-172
		c0,43.9,0,87.4,0,131C368.7,328.2,367.9,328.7,367.2,329.1z"/>
	<path class="st0" d="M316.9,409.6c17.9-15.5,34.2-29.6,51.6-44.7c0,15.7,0,29.9,0,44.7C352.3,409.6,336,409.6,316.9,409.6z"/>
</g>
</svg>
